<?xml version="1.0" encoding="utf-8"?>
<!-- Generator: Adobe Illustrator 16.0.0, SVG Export Plug-In . SVG Version: 6.00 Build 0)  -->
<!DOCTYPE svg PUBLIC "-//W3C//DTD SVG 1.1//EN" "http://www.w3.org/Graphics/SVG/1.1/DTD/svg11.dtd">
<svg version="1.1" id="honey_jar" xmlns="http://www.w3.org/2000/svg" xmlns:xlink="http://www.w3.org/1999/xlink" x="0px" y="0px"
	 width="281px" height="310px" viewBox="0 0 281 310" enable-background="new 0 0 281 310" xml:space="preserve">
<g>
	<path fill="#ECEFF9" d="M26.091,292.363h150c4.088,0,6.818-2.729,6.818-6.818v-57.954c0-4.088-2.044-8.183-5.453-10.906
		l-10.913-8.183c-6.818-5.454-10.906-12.958-10.906-21.82v-17.045H46.546v17.045c0,8.862-4.092,16.366-10.91,21.82l-10.909,8.183
		c-3.409,2.724-5.454,6.818-5.454,10.906v57.954C19.272,289.634,21.999,292.363,26.091,292.363"/>
	<path fill="#97B4D3" d="M177.456,216.685l-10.906-8.183c-6.818-5.454-10.913-12.958-10.913-21.82v-17.045h-34.091h-6.818H46.546
		v6.818H104.5c5.457,0,10.228,4.773,10.228,10.227c0,8.862,4.092,16.366,10.909,21.82l10.91,8.183
		c3.409,2.724,5.453,6.818,5.453,10.906v57.954c0,4.089-2.727,6.818-6.818,6.818h40.909c4.095,0,6.818-2.729,6.818-6.818v-57.954
		C182.909,223.503,180.865,219.408,177.456,216.685"/>
	<path fill="#F19A22" d="M101.091,128.728c3.763,0,6.818,3.046,6.818,6.818s-3.056,6.818-6.818,6.818
		c-3.762,0-6.818-3.046-6.818-6.818S97.329,128.728,101.091,128.728"/>
	<path fill="#F19A22" d="M53.364,101.455c3.762,0,6.817,3.046,6.817,6.818c0,3.772-3.056,6.818-6.817,6.818
		c-3.763,0-6.818-3.046-6.818-6.818C46.546,104.501,49.602,101.455,53.364,101.455"/>
	<path fill="#F6B545" d="M97.682,101.455c2.045,0,3.409-1.365,3.409-3.409v-75c0-2.044-1.364-3.409-3.409-3.409
		c-2.044,0-3.409,1.365-3.409,3.409v75C94.272,100.09,95.638,101.455,97.682,101.455"/>
	<path fill="#F6B545" d="M118.137,87.818c2.044,0,3.409-1.365,3.409-3.409V36.682c0-2.044-1.365-3.409-3.409-3.409
		s-3.409,1.365-3.409,3.409v47.728C114.728,86.453,116.093,87.818,118.137,87.818"/>
	<path fill="#F6B545" d="M138.591,74.182c2.044,0,3.409-1.365,3.409-3.409V50.318c0-2.044-1.365-3.409-3.409-3.409
		s-3.409,1.365-3.409,3.409v20.454C135.182,72.817,136.547,74.182,138.591,74.182"/>
	<path fill="#F6B545" d="M56.772,74.182c2.045,0,3.409-1.365,3.409-3.409V50.318c0-2.044-1.364-3.409-3.409-3.409
		c-2.044,0-3.408,1.365-3.408,3.409v20.454C53.364,72.817,54.729,74.182,56.772,74.182"/>
	<path fill="#F6B545" d="M77.228,87.818c2.044,0,3.409-1.365,3.409-3.409V36.682c0-2.044-1.365-3.409-3.409-3.409
		s-3.409,1.365-3.409,3.409v47.728C73.818,86.453,75.184,87.818,77.228,87.818"/>
	<path fill="#F6B545" d="M182.909,237.818H19.272v47.727c0,4.089,2.727,6.818,6.818,6.818h150c4.088,0,6.818-2.729,6.818-6.818
		V237.818z"/>
	<path fill="#F19A22" d="M73.818,149.182c-4.092,0-6.818-2.727-6.818-6.818V94.636c0-4.091,2.727-6.818,6.818-6.818
		s6.818,2.727,6.818,6.818v47.728C80.637,146.455,77.91,149.182,73.818,149.182"/>
	<path fill="#F19A22" d="M128.364,135.545c-4.092,0-6.818-2.727-6.818-6.818v-20.455c0-4.091,2.727-6.818,6.818-6.818
		c4.091,0,6.817,2.727,6.817,6.818v20.455C135.182,132.819,132.455,135.545,128.364,135.545"/>
	<path fill="#F19A22" d="M87.455,183.272c3.762,0,6.817,3.05,6.817,6.818s-3.056,6.818-6.817,6.818c-3.763,0-6.818-3.05-6.818-6.818
		S83.692,183.272,87.455,183.272"/>
	<path fill="#F19A22" d="M53.364,271.909L53.364,271.909c-4.092,0-6.818-2.729-6.818-6.818v-27.272h13.636v27.272
		C60.182,269.18,57.455,271.909,53.364,271.909"/>
	<path fill="#FFFFFF" d="M60.182,224.182H46.546v-6.818c0-4.088,2.727-6.818,6.818-6.818c4.091,0,6.817,2.73,6.817,6.818V224.182z"
		/>
	<path fill="#D98B37" d="M203.363,67.364h54.546c4.088,0,6.818-2.727,6.818-6.818s-2.73-6.818-6.818-6.818h-54.546
		c-4.088,0-6.818,2.727-6.818,6.818S199.275,67.364,203.363,67.364"/>
	<path fill="#014463" d="M257.909,40.091h-54.546c-8.862,0-16.366,5.453-19.089,13.637h-28.638v-3.409
		c0-9.545-7.498-17.046-17.046-17.046c-1.364,0-2.727,0-3.409,0.683c-2.044-8.183-8.862-14.319-17.045-14.319
		c-1.365,0-2.727,0-3.409,0.683C112.684,12.136,105.865,6,97.682,6c-8.183,0-15.001,6.136-17.045,14.319
		c-0.683-0.683-2.044-0.683-3.409-0.683c-8.184,0-15.001,6.136-17.046,14.319c-0.683-0.683-2.044-0.683-3.409-0.683
		c-9.544,0-17.045,7.501-17.045,17.046v20.454c0,9.545,7.501,17.046,17.045,17.046c1.365,0,2.727,0,3.409-0.683
		c1.365,8.183,8.184,14.319,17.046,14.319c1.365,0,2.727,0,3.409-0.683c1.365,8.183,8.183,14.319,17.045,14.319
		s15.002-6.136,17.046-14.319c1.365,0,2.727,0.683,3.409,0.683c8.183,0,15.001-6.136,17.045-14.319c1.365,0,2.727,0.683,3.409,0.683
		c9.548,0,17.046-7.501,17.046-17.046v-3.409h28.638C186.997,75.547,194.501,81,203.363,81h54.546
		c11.592,0,20.454-8.862,20.454-20.455S269.501,40.091,257.909,40.091 M60.182,70.772c0,2.044-1.364,3.409-3.409,3.409
		c-2.044,0-3.408-1.365-3.408-3.409V50.318c0-2.044,1.364-3.409,3.408-3.409c2.045,0,3.409,1.365,3.409,3.409V70.772z
		 M80.637,84.409c0,2.044-1.365,3.409-3.409,3.409s-3.409-1.365-3.409-3.409V70.772V50.318V36.682c0-2.044,1.365-3.409,3.409-3.409
		s3.409,1.365,3.409,3.409V84.409z M101.091,36.682v47.728v13.636c0,2.044-1.364,3.409-3.409,3.409
		c-2.044,0-3.409-1.365-3.409-3.409V84.409V36.682V23.045c0-2.044,1.365-3.409,3.409-3.409c2.045,0,3.409,1.365,3.409,3.409V36.682z
		 M121.546,50.318v20.454v13.637c0,2.044-1.365,3.409-3.409,3.409s-3.409-1.365-3.409-3.409V36.682c0-2.044,1.365-3.409,3.409-3.409
		s3.409,1.365,3.409,3.409V50.318z M142,70.772c0,2.044-1.365,3.409-3.409,3.409s-3.409-1.365-3.409-3.409V50.318
		c0-2.044,1.365-3.409,3.409-3.409S142,48.274,142,50.318V70.772z M257.909,67.364h-54.546c-4.088,0-6.818-2.727-6.818-6.818
		s2.73-6.818,6.818-6.818h54.546c4.088,0,6.818,2.727,6.818,6.818S261.997,67.364,257.909,67.364"/>
	<path fill="#F19A22" d="M94.272,53.728v44.318c0,2.044,1.365,3.409,3.409,3.409c2.045,0,3.409-1.365,3.409-3.409V53.728H94.272z"/>
	<path fill="#F19A22" d="M114.728,60.545v23.864c0,2.044,1.365,3.409,3.409,3.409s3.409-1.365,3.409-3.409V60.545H114.728z"/>
	<path fill="#F19A22" d="M73.818,60.545v23.864c0,2.044,1.365,3.409,3.409,3.409s3.409-1.365,3.409-3.409V60.545H73.818z"/>
	<path fill="#F19A22" d="M135.182,67.364v3.409c0,2.044,1.365,3.409,3.409,3.409S142,72.817,142,70.772v-3.409H135.182z"/>
	<path fill="#F19A22" d="M53.364,67.364v3.409c0,2.044,1.364,3.409,3.408,3.409c2.045,0,3.409-1.365,3.409-3.409v-3.409H53.364z"/>
	<path fill="#F19A22" d="M142,237.818v34.091c0,7.497-6.136,13.636-13.636,13.636H19.272c0,4.089,2.727,6.818,6.818,6.818H142
		h34.091c4.088,0,6.818-2.729,6.818-6.818v-47.727H142z"/>
	<path fill="#C87729" d="M203.363,67.364h54.546c4.088,0,6.818-2.727,6.818-6.818h-68.183
		C196.545,64.637,199.275,67.364,203.363,67.364"/>
	<g id="XMLID_1_">
		<linearGradient id="SVGID_1_" gradientUnits="userSpaceOnUse" x1="101.0903" y1="306" x2="101.0903" y2="207.9958">
			<stop  offset="0" style="stop-color:#FFA600"/>
			<stop  offset="1" style="stop-color:#FF7200"/>
		</linearGradient>
		<path fill="url(#SVGID_1_)" d="M196.54,227.59v57.95c0,11.6-8.86,20.46-20.45,20.46h-150c-11.59,0-20.45-8.86-20.45-20.46v-57.95
			c0-8.859,4.09-16.37,10.91-21.82l10.91-8.18c3.41-2.72,5.45-6.82,5.45-10.91v-17.04c-4.09,0-6.82-2.729-6.82-6.819
			s2.73-6.82,6.82-6.82h6.82h122.72h6.819c4.091,0,6.82,2.73,6.82,6.82s-2.729,6.819-6.82,6.819v17.04
			c0,4.09,2.051,8.19,5.461,10.91l10.909,8.18C192.46,211.22,196.54,218.73,196.54,227.59z M182.91,285.54v-47.72l-0.68-13.641
			c-0.69-2.729-2.051-5.449-4.771-7.5l-10.92-8.18c-6.82-5.45-10.9-12.96-10.9-21.82v-17.04H135.18h-13.63h-75v17.04
			c0,8.86-4.1,16.37-10.91,21.82l-10.91,8.18c-2.73,2.051-4.09,4.771-4.77,7.5l-0.69,13.641v47.72c0,4.09,2.73,6.82,6.82,6.82h150
			C180.18,292.36,182.91,289.63,182.91,285.54z"/>
		<path fill="#F19A22" d="M135.18,169.64v20.45c0,4.09-2.72,6.82-6.82,6.82c-4.09,0-6.81-2.73-6.81-6.82v-20.45H135.18z"/>
		<path fill="#F19A22" d="M75.17,224.18h24.5l0.01-0.109c0.45,0.069,0.92,0.109,1.41,0.109h81.141l0.68,13.641H19.27l0.69-13.641
			h53.86c0.46,0,0.91-0.04,1.34-0.1L75.17,224.18z"/>
		<path fill="#F19A22" d="M75.16,224.08c3.34-0.54,5.48-3.1,5.48-6.72v-6.82c0-4.08,2.72-6.81,6.82-6.81
			c4.09,0,6.81,2.729,6.81,6.81v6.82c0,3.6,2.12,6.149,5.41,6.71l-0.01,0.109h-24.5L75.16,224.08z"/>
	</g>
</g>
</svg>
