<?xml version="1.0" encoding="UTF-8" standalone="no"?>
<svg width="150px" height="30px" viewBox="0 0 150 30" version="1.1" xmlns="http://www.w3.org/2000/svg" xmlns:xlink="http://www.w3.org/1999/xlink">
    <!-- Generator: Sketch 3.7.2 (28276) - http://www.bohemiancoding.com/sketch -->
    <title>SPC_Logo_RGB_01</title>
    <desc>Created with Sketch.</desc>
    <defs></defs>
    <g id="Welcome" stroke="none" stroke-width="1" fill="none" fill-rule="evenodd">
        <g id="Desktop-HD" transform="translate(-149.000000, -24.000000)">
            <g id="SPC_Logo_RGB_01" transform="translate(149.000000, 24.000000)">
                <path d="M109.703248,10.6746207 L109.703248,9.06841379 L109.703248,10.6746207 Z" id="Fill-1" fill="#FFA028"></path>
                <path d="M109.703248,20.6295517 L109.703248,19.0233448 L109.703248,20.6295517 Z" id="Fill-2" fill="#FF6900"></path>
                <polygon id="Fill-3" fill="#FF6900" points="64.452877 14.4702931 64.461377 14.4617931 64.452877 14.4527931"></polygon>
                <polygon id="Fill-4" fill="#FF6900" points="109.703248 28.9555172 120.235963 28.9555172 120.235963 20.6293103 109.703248 20.6293103"></polygon>
                <polygon id="Fill-5" fill="#AA0078" points="96.9172622 0.721655172 96.9172622 28.9557931 109.703109 14.4588966"></polygon>
                <polygon id="Fill-6" fill="#FF0000" points="120.235789 9.06824138 120.235789 0.721689655 96.9172274 0.721689655 109.703074 14.458931 109.703074 19.023069 120.235789 19.023069 120.235789 10.6744483 109.703074 10.6744483 109.703074 9.06824138"></polygon>
                <polygon id="Fill-7" fill="#FFA028" points="96.9172622 28.9557586 109.703109 28.9557586 109.703109 20.6295517 109.703109 19.023 109.703109 14.4588621"></polygon>
                <polygon id="Fill-8" fill="#6E0096" points="24.0414501 28.9557586 36.827297 28.9557586 36.827297 22.8419655 36.827297 14.4588621"></polygon>
                <g id="Group-41" transform="translate(0.000000, 0.022414)">
                    <path d="M38.197761,0.699241379 L24.0413805,0.699241379 L36.8272274,14.4364828 L36.8272274,22.8192414 L38.197761,22.8192414 C44.2684107,22.8192414 49.3583179,17.9885517 49.3583179,11.7592414 C49.3583179,5.06958621 44.1991531,0.699241379 38.197761,0.699241379" id="Fill-9" fill="#FF0000"></path>
                    <polygon id="Fill-11" fill="#FFA028" points="24.0414501 0.699241379 24.0414501 28.9333793 36.827297 14.4364828"></polygon>
                    <path d="M0.141716937,19.0492069 C0.141716937,24.8054138 4.33092807,29.473 10.3848724,29.473 C12.1852204,29.473 13.8540139,29.093 15.3209513,28.4223103 L5.84937355,19.0492069 L0.141716937,19.0492069 Z" id="Fill-13" fill="#FF0000"></path>
                    <path d="M10.93942,0.159793103 C9.1449884,0.159793103 7.51900232,0.537724138 6.10635731,1.20427586 L15.5869838,10.5853103 L21.1825754,10.5853103 C21.1825754,4.82703448 16.9937123,0.159793103 10.93942,0.159793103" id="Fill-15" fill="#FFA028"></path>
                    <path d="M0.552981439,10.1267931 L0.552981439,10.2419655 C0.552981439,12.9412759 1.55773782,14.6081724 3.00901392,16.1112759 C4.7049536,17.8671379 5.86179814,19.0492069 5.86179814,19.0492069 L5.84961717,19.0492069 L15.3211949,28.4223103 C18.8171346,26.8198966 21.1381323,23.5247241 21.1816357,19.5057586 L21.1791995,19.3905862 C21.1791995,16.6226552 19.9934687,14.8164483 18.4558817,13.3716207 C16.6572738,11.6826552 15.5359281,10.5854138 15.5359281,10.5854138 L15.5867401,10.5854138 L6.10646172,1.20437931 C2.72015081,2.80265517 0.596484919,6.10196552 0.552981439,10.1267931" id="Fill-17" fill="#AA0078"></path>
                    <polygon id="Fill-19" fill="#FF6900" points="64.4527726 28.9333448 64.4527726 14.4426552 51.1487123 28.9333448"></polygon>
                    <polygon id="Fill-21" fill="#FF6900" points="64.4527726 0.697241379 51.1487123 0.697241379 51.1487123 0.699310345 64.4527726 14.4303448"></polygon>
                    <polygon id="Fill-23" fill="#AA0078" points="51.1488863 0.699241379 51.1488863 28.9333793 64.4529466 14.4423448 64.4529466 14.4302759"></polygon>
                    <polygon id="Fill-25" fill="#FF0000" points="122.778724 28.9333448 135.565963 28.9333448 135.565963 14.4364483"></polygon>
                    <polygon id="Fill-27" fill="#FF6900" points="122.778724 0.699241379 122.778724 28.9333793 135.565963 14.4364828 135.565963 0.699241379"></polygon>
                    <path d="M135.719652,0.699241379 L135.566172,0.699241379 L135.566172,14.4364828 L135.566172,28.9333793 L135.719652,28.9333793 C143.586821,28.9333793 149.849582,22.6133793 149.849582,14.8161379 C149.849582,7.02131034 143.586821,0.699241379 135.719652,0.699241379" id="Fill-29" fill="#6E0096"></path>
                    <path d="M95.3022042,15.7073448 L83.2176334,15.7073448 C83.0770302,16.0973448 82.8480278,16.4428621 82.5549884,16.7235517 L90.7479118,25.527 C93.3922274,23.0518276 95.1045244,19.5966552 95.3022042,15.7073448" id="Fill-31" fill="#AA0078"></path>
                    <path d="M80.695232,12.1614138 C81.406949,12.1614138 82.0494084,12.4403793 82.5296868,12.8886552 L90.7222622,4.08762069 C88.1057889,1.65106897 84.5840951,0.163827586 80.7053248,0.163827586 C76.86971,0.163827586 73.3908237,1.65693103 70.7837471,4.07934483 L78.9314269,12.8321034 C79.4043968,12.4200345 80.0162297,12.1614138 80.695232,12.1614138" id="Fill-33" fill="#FFA028"></path>
                    <path d="M83.2544548,14.0263103 L95.3042227,14.0263103 C95.132297,10.0863103 93.4029466,6.587 90.7220882,4.08768966 L82.5298608,12.8887241 C82.8608353,13.1980345 83.1159397,13.5859655 83.2544548,14.0263103" id="Fill-35" fill="#AA0078"></path>
                    <path d="M78.9081787,16.7802069 L70.7601508,25.5329655 C73.3703596,27.9674483 76.8579466,29.4688276 80.7053944,29.4688276 C84.5963457,29.4688276 88.1295244,27.9777931 90.7480858,25.5267586 L82.5551624,16.7236552 C82.0738399,17.1864138 81.4191995,17.4712414 80.6953016,17.4712414 C80.0058585,17.4712414 79.3818445,17.2043448 78.9081787,16.7802069" id="Fill-37" fill="#FF0000"></path>
                    <path d="M78.0177146,14.8163103 C78.0177146,14.0242414 78.3751392,13.319069 78.9312877,12.8321724 L70.7839559,4.07941379 C67.9019374,6.75458621 66.0883643,10.5694138 66.0883643,14.8163103 C66.0883643,19.0532069 67.8928886,22.8576897 70.759942,25.5328621 L78.9083179,16.7801034 C78.3643503,16.2932069 78.0177146,15.5983793 78.0177146,14.8163103" id="Fill-39" fill="#FF6900"></path>
                </g>
            </g>
        </g>
    </g>
</svg>